<svg width="30" height="30" viewBox="0 0 1228.800048828125 1198.4857177734375" style="top:3px; position:relative;" fill="none" xmlns="http://www.w3.org/2000/svg"><path fill-rule="evenodd" clip-rule="evenodd" d="M614.4 0C274.944 0 0 274.944 0 614.4c0 271.872 175.872 501.504 420.096 582.912 30.72 5.376 42.24 -13.056 42.24 -29.184 0 -14.592 -0.768 -62.976 -0.768 -114.432 -154.368 28.416 -194.304 -37.632 -206.592 -72.192 -6.912 -17.664 -36.864 -72.192 -62.976 -86.784 -21.504 -11.52 -52.224 -39.936 -0.768 -40.704 48.384 -0.768 82.944 44.544 94.464 62.976 55.296 92.928 143.616 66.816 178.944 50.688 5.376 -39.936 21.504 -66.816 39.168 -82.176 -136.704 -15.36 -279.552 -68.352 -279.552 -303.36 0 -66.816 23.808 -122.112 62.976 -165.12 -6.144 -15.36 -27.648 -78.336 6.144 -162.816 0 0 51.456 -16.128 168.96 62.976 49.152 -13.824 101.376 -20.736 153.6 -20.736 52.224 0 104.448 6.912 153.6 20.736 117.504 -79.872 168.96 -62.976 168.96 -62.976 33.792 84.48 12.288 147.456 6.144 162.816 39.168 43.008 62.976 97.536 62.976 165.12 0 235.776 -143.616 288 -280.32 303.36 22.272 19.2 41.472 56.064 41.472 113.664 0 82.176 -0.768 148.224 -0.768 168.96 0 16.128 11.52 35.328 42.24 29.184C1052.928 1115.904 1228.8 885.504 1228.8 614.4 1228.8 274.944 953.856 0 614.4 0Z" fill="#f0f0f0"/></svg>